<svg xmlns="http://www.w3.org/2000/svg" viewBox="0 0 124.35 45.34"><defs><style>.cls-1{font-size:16px;font-family:HammersmithOne, Hammersmith One;letter-spacing:0.03em;}.cls-1,.cls-3{fill:#006039;}.cls-2{fill:none;stroke:#000;stroke-miterlimit:10;stroke-width:0.1px;}.cls-4{fill:#0bb858;}</style></defs><g id="图层_2" data-name="图层 2"><g id="图层_1-2" data-name="图层 1"><text class="cls-1" transform="translate(57.45 39.75)">conneco</text><line class="cls-2" x1="37.88" y1="24.01" x2="37.88" y2="24"/><path class="cls-3" d="M43.63,18H37.5A16,16,0,0,0,28,7.16a14.66,14.66,0,0,0-2-.65A15.84,15.84,0,0,0,22,6,16,16,0,0,0,6.5,18,16.48,16.48,0,0,0,6,22a14.71,14.71,0,0,0,.13,2A16,16,0,0,0,26,37.51v6.12A20.9,20.9,0,0,1,22,44,22,22,0,0,1,.09,24Q0,23,0,22a21,21,0,0,1,.37-4A22,22,0,0,1,22,0a20.9,20.9,0,0,1,4,.37,16.09,16.09,0,0,1,2,.45A22,22,0,0,1,43.63,18Z"/><path class="cls-4" d="M48,34a10,10,0,0,1-19.62,2.71A9.7,9.7,0,0,1,28,34a10,10,0,0,1,9.49-10h1A10,10,0,0,1,48,34Z"/></g></g></svg>
