<svg xmlns="http://www.w3.org/2000/svg" viewBox="0 0 56.03 44"><defs><style>.cls-1{font-size:13.4px;font-family:HammersmithOne, Hammersmith One;letter-spacing:0.03em;}.cls-1,.cls-3{fill:#006039;}.cls-2{fill:none;stroke:#000;stroke-miterlimit:10;stroke-width:0.1px;}.cls-4{fill:#0bb858;}</style></defs><g id="??_2" data-name="?? 2"><g id="??_1-2" data-name="?? 1"><line class="cls-2" x1="42.01" y1="24.01" x2="42.01" y2="24"/><path class="cls-3" d="M47.76,18H41.63A16,16,0,0,0,32.08,7.16a14.66,14.66,0,0,0-2-.65,15.84,15.84,0,0,0-4-.5,16,16,0,0,0-15.5,12,16.48,16.48,0,0,0-.5,4,14.71,14.71,0,0,0,.13,2,16,16,0,0,0,19.85,13.5v6.12a20.9,20.9,0,0,1-4,.37A22,22,0,0,1,4.22,24q-.09-1-.09-2a21,21,0,0,1,.37-4A22,22,0,0,1,26.13,0a20.9,20.9,0,0,1,4,.37,16.09,16.09,0,0,1,2,.45A22,22,0,0,1,47.76,18Z"/><path class="cls-4" d="M52.08,34a10,10,0,0,1-19.62,2.71A9.7,9.7,0,0,1,32.08,34a10,10,0,0,1,9.49-10h1a10,10,0,0,1,9.49,10Z"/></g></g></svg>
